<svg xmlns="http://www.w3.org/2000/svg" xmlns:xlink="http://www.w3.org/1999/xlink" viewBox="0 0 560.37 240.71"><defs><style>.cls-1{fill:url(#Gradiente_sem_nome_21);}.cls-2{fill:url(#Gradiente_sem_nome_21-2);}.cls-3{fill:url(#Gradiente_sem_nome_21-3);}.cls-4{fill:url(#Gradiente_sem_nome_21-4);}.cls-5{fill:url(#Gradiente_sem_nome_21-5);}.cls-6{fill:url(#Gradiente_sem_nome_21-6);}</style><linearGradient id="Gradiente_sem_nome_21" x1="23.42" y1="148.33" x2="541.15" y2="148.33" gradientUnits="userSpaceOnUse"><stop offset="0" stop-color="#45b386"/><stop offset="1" stop-color="#36485c"/></linearGradient><linearGradient id="Gradiente_sem_nome_21-2" x1="0" y1="224.1" x2="0" y2="224.1" xlink:href="#Gradiente_sem_nome_21"/><linearGradient id="Gradiente_sem_nome_21-3" x1="0" y1="73.38" x2="0" y2="73.38" xlink:href="#Gradiente_sem_nome_21"/><linearGradient id="Gradiente_sem_nome_21-4" x1="23.42" y1="119.58" x2="541.15" y2="119.58" xlink:href="#Gradiente_sem_nome_21"/><linearGradient id="Gradiente_sem_nome_21-5" x1="23.42" y1="92.91" x2="541.15" y2="92.91" xlink:href="#Gradiente_sem_nome_21"/><linearGradient id="Gradiente_sem_nome_21-6" x1="23.42" y1="110.39" x2="541.15" y2="110.39" xlink:href="#Gradiente_sem_nome_21"/></defs><title>Ativo 4</title><g id="Camada_2" data-name="Camada 2"><g id="Camada_1-2" data-name="Camada 1"><path class="cls-1" d="M72,56h0A66.88,66.88,0,0,0,36.17,66.27a16.6,16.6,0,0,0-31.6,7.11s0,.07,0,.11h0V224.1h0a16.61,16.61,0,1,0,33.22,0V180.94A67.16,67.16,0,1,0,72,56Zm0,101.31a34.16,34.16,0,1,1,34.15-34.16A34.16,34.16,0,0,1,72,157.27Z"/><polygon class="cls-2" points="0 224.1 0 224.1 0 224.1 0 224.1"/><polygon class="cls-3" points="0 73.38 0 73.38 0 73.38 0 73.38"/><path class="cls-4" d="M264.59,51.69A16.61,16.61,0,0,0,248,68.3v59.4h0c0,29.61-44.52,36.53-53.68,7.7a25.21,25.21,0,0,1-1.18-7.69h0V66.94h-.07a16.59,16.59,0,0,0-33.08,0h0v.11c0,.41-.06.83-.06,1.25s0,.84.06,1.26v56.89c0,.41-.06.83-.06,1.25h0c0,45.76,50.33,73.92,90.45,51.71h0a16.59,16.59,0,0,0,30.82-8.55V68.3A16.61,16.61,0,0,0,264.59,51.69Z"/><path class="cls-5" d="M371.84,151.9a17.56,17.56,0,0,0-2.42.19v0c-13,1.92-21.48-.35-21.46-13.29V81.22h22.95a16.61,16.61,0,0,0,0-33.22H348V16.62h0a16.61,16.61,0,0,0-33.22,0h0V48H264.7a16.61,16.61,0,1,0,0,33.22h50.06V137.9c.06,30.86,21.28,52.66,59.49,47v0a16.6,16.6,0,0,0-2.41-33Z"/><path class="cls-6" d="M560.37,110.38a78.31,78.31,0,0,0-6.43-31.16,80.93,80.93,0,0,0-50.62-45,82.29,82.29,0,0,0-24-3.55h0a82.18,82.18,0,0,0-31.41,6.21,80.93,80.93,0,0,0-35.66,28.76,78.42,78.42,0,0,0-14,44.73h0c0,43.89,36.18,79.69,81,79.69h0c44.7,0,81-35.65,81-79.65v0Zm-103.3-7.07a16.21,16.21,0,0,1-1.05,2.47,15.26,15.26,0,1,1-26.94-14.34,4.92,4.92,0,0,1,6.27-2.22l18.95,8A4.93,4.93,0,0,1,457.07,103.31Zm40.26,34.1a4.92,4.92,0,0,1-6.17-3.22c-.35-.9-2.84-6.6-11.82-6.6s-11.47,5.7-11.81,6.6a4.92,4.92,0,1,1-9.35-3c.17-.55,4.5-13.43,21.16-13.43s21,12.88,21.17,13.43h0a4.86,4.86,0,0,1,.26,1.56A4.93,4.93,0,0,1,497.33,137.41Zm23.51-24.29a15.26,15.26,0,0,1-19.22-9.81,4.93,4.93,0,0,1,2.76-6.06l19-8a4.92,4.92,0,0,1,6.27,2.22,14.85,14.85,0,0,1,1,2.47A15.25,15.25,0,0,1,520.84,113.12Z"/></g></g></svg>